<mxfile host="app.diagrams.net" modified="2022-09-05T06:51:48.801Z" agent="5.0 (Macintosh; Intel Mac OS X 10_15_7) AppleWebKit/537.36 (KHTML, like Gecko) Chrome/104.0.0.0 Safari/537.36" etag="fpGmJAWzxuJvZ7tKSX-L" version="20.2.8" type="github">
  <diagram id="R2lEEEUBdFMjLlhIrx00" name="Page-1">
    <mxGraphModel dx="1113" dy="722" grid="1" gridSize="10" guides="1" tooltips="1" connect="1" arrows="1" fold="1" page="1" pageScale="1" pageWidth="3300" pageHeight="4681" math="0" shadow="0" extFonts="Permanent Marker^https://fonts.googleapis.com/css?family=Permanent+Marker">
      <root>
        <mxCell id="0" />
        <mxCell id="1" parent="0" />
        <mxCell id="PzxKSnyha53FVGnrYv1--18" style="edgeStyle=none;rounded=0;orthogonalLoop=1;jettySize=auto;html=1;exitX=0.5;exitY=1;exitDx=0;exitDy=0;entryX=0.5;entryY=0;entryDx=0;entryDy=0;strokeColor=default;endArrow=none;endFill=0;shape=link;" edge="1" parent="1" source="PzxKSnyha53FVGnrYv1--1" target="PzxKSnyha53FVGnrYv1--3">
          <mxGeometry relative="1" as="geometry" />
        </mxCell>
        <mxCell id="PzxKSnyha53FVGnrYv1--1" value="Admin" style="whiteSpace=wrap;html=1;align=center;" vertex="1" parent="1">
          <mxGeometry x="150" y="240" width="100" height="40" as="geometry" />
        </mxCell>
        <mxCell id="PzxKSnyha53FVGnrYv1--20" style="edgeStyle=none;rounded=0;orthogonalLoop=1;jettySize=auto;html=1;exitX=0.5;exitY=1;exitDx=0;exitDy=0;entryX=0.5;entryY=0;entryDx=0;entryDy=0;strokeColor=default;endArrow=none;endFill=0;" edge="1" parent="1" source="PzxKSnyha53FVGnrYv1--3" target="PzxKSnyha53FVGnrYv1--19">
          <mxGeometry relative="1" as="geometry" />
        </mxCell>
        <mxCell id="PzxKSnyha53FVGnrYv1--23" style="edgeStyle=none;rounded=0;orthogonalLoop=1;jettySize=auto;html=1;exitX=0;exitY=1;exitDx=0;exitDy=0;entryX=0.5;entryY=0;entryDx=0;entryDy=0;strokeColor=default;endArrow=none;endFill=0;" edge="1" parent="1" source="PzxKSnyha53FVGnrYv1--3" target="PzxKSnyha53FVGnrYv1--21">
          <mxGeometry relative="1" as="geometry" />
        </mxCell>
        <mxCell id="PzxKSnyha53FVGnrYv1--24" style="edgeStyle=none;rounded=0;orthogonalLoop=1;jettySize=auto;html=1;exitX=1;exitY=1;exitDx=0;exitDy=0;entryX=0.5;entryY=0;entryDx=0;entryDy=0;strokeColor=default;endArrow=none;endFill=0;" edge="1" parent="1" source="PzxKSnyha53FVGnrYv1--3" target="PzxKSnyha53FVGnrYv1--22">
          <mxGeometry relative="1" as="geometry" />
        </mxCell>
        <mxCell id="PzxKSnyha53FVGnrYv1--3" value="d" style="ellipse;whiteSpace=wrap;html=1;aspect=fixed;" vertex="1" parent="1">
          <mxGeometry x="180" y="320" width="40" height="40" as="geometry" />
        </mxCell>
        <mxCell id="PzxKSnyha53FVGnrYv1--6" value="Person" style="whiteSpace=wrap;html=1;align=center;" vertex="1" parent="1">
          <mxGeometry x="350" y="40" width="100" height="40" as="geometry" />
        </mxCell>
        <mxCell id="PzxKSnyha53FVGnrYv1--13" style="edgeStyle=none;orthogonalLoop=1;jettySize=auto;html=1;exitX=0;exitY=1;exitDx=0;exitDy=0;entryX=0.5;entryY=0;entryDx=0;entryDy=0;strokeColor=default;endArrow=none;endFill=0;rounded=0;" edge="1" parent="1" source="PzxKSnyha53FVGnrYv1--7" target="PzxKSnyha53FVGnrYv1--1">
          <mxGeometry relative="1" as="geometry" />
        </mxCell>
        <mxCell id="PzxKSnyha53FVGnrYv1--16" style="edgeStyle=none;rounded=0;orthogonalLoop=1;jettySize=auto;html=1;exitX=1;exitY=1;exitDx=0;exitDy=0;entryX=0.5;entryY=0;entryDx=0;entryDy=0;strokeColor=default;endArrow=none;endFill=0;" edge="1" parent="1" source="PzxKSnyha53FVGnrYv1--7" target="PzxKSnyha53FVGnrYv1--8">
          <mxGeometry relative="1" as="geometry" />
        </mxCell>
        <mxCell id="PzxKSnyha53FVGnrYv1--17" style="edgeStyle=none;rounded=0;orthogonalLoop=1;jettySize=auto;html=1;exitX=0.5;exitY=0;exitDx=0;exitDy=0;strokeColor=default;endArrow=none;endFill=0;entryX=0.5;entryY=1;entryDx=0;entryDy=0;shape=link;" edge="1" parent="1" source="PzxKSnyha53FVGnrYv1--7" target="PzxKSnyha53FVGnrYv1--6">
          <mxGeometry relative="1" as="geometry">
            <mxPoint x="399.91549295774655" y="90" as="targetPoint" />
          </mxGeometry>
        </mxCell>
        <mxCell id="PzxKSnyha53FVGnrYv1--7" value="o" style="ellipse;whiteSpace=wrap;html=1;aspect=fixed;" vertex="1" parent="1">
          <mxGeometry x="380" y="120" width="40" height="40" as="geometry" />
        </mxCell>
        <mxCell id="PzxKSnyha53FVGnrYv1--8" value="User" style="whiteSpace=wrap;html=1;align=center;" vertex="1" parent="1">
          <mxGeometry x="550" y="240" width="100" height="40" as="geometry" />
        </mxCell>
        <mxCell id="PzxKSnyha53FVGnrYv1--19" value="Employee" style="whiteSpace=wrap;html=1;align=center;" vertex="1" parent="1">
          <mxGeometry x="150" y="440" width="100" height="40" as="geometry" />
        </mxCell>
        <mxCell id="PzxKSnyha53FVGnrYv1--21" value="Manager" style="whiteSpace=wrap;html=1;align=center;" vertex="1" parent="1">
          <mxGeometry x="10" y="440" width="100" height="40" as="geometry" />
        </mxCell>
        <mxCell id="PzxKSnyha53FVGnrYv1--22" value="Owner" style="whiteSpace=wrap;html=1;align=center;" vertex="1" parent="1">
          <mxGeometry x="290" y="440" width="100" height="40" as="geometry" />
        </mxCell>
        <mxCell id="PzxKSnyha53FVGnrYv1--26" style="edgeStyle=none;rounded=0;orthogonalLoop=1;jettySize=auto;html=1;exitX=0.5;exitY=0;exitDx=0;exitDy=0;entryX=0.5;entryY=1;entryDx=0;entryDy=0;strokeColor=default;endArrow=none;endFill=0;shape=link;" edge="1" parent="1" source="PzxKSnyha53FVGnrYv1--25" target="PzxKSnyha53FVGnrYv1--8">
          <mxGeometry relative="1" as="geometry" />
        </mxCell>
        <mxCell id="PzxKSnyha53FVGnrYv1--29" style="edgeStyle=none;rounded=0;orthogonalLoop=1;jettySize=auto;html=1;exitX=1;exitY=1;exitDx=0;exitDy=0;entryX=0.5;entryY=0;entryDx=0;entryDy=0;strokeColor=default;endArrow=none;endFill=0;" edge="1" parent="1" source="PzxKSnyha53FVGnrYv1--25" target="PzxKSnyha53FVGnrYv1--28">
          <mxGeometry relative="1" as="geometry" />
        </mxCell>
        <mxCell id="PzxKSnyha53FVGnrYv1--30" style="edgeStyle=none;rounded=0;orthogonalLoop=1;jettySize=auto;html=1;exitX=0;exitY=1;exitDx=0;exitDy=0;entryX=0.5;entryY=0;entryDx=0;entryDy=0;strokeColor=default;endArrow=none;endFill=0;" edge="1" parent="1" source="PzxKSnyha53FVGnrYv1--25" target="PzxKSnyha53FVGnrYv1--27">
          <mxGeometry relative="1" as="geometry" />
        </mxCell>
        <mxCell id="PzxKSnyha53FVGnrYv1--25" value="d" style="ellipse;whiteSpace=wrap;html=1;aspect=fixed;" vertex="1" parent="1">
          <mxGeometry x="580" y="320" width="40" height="40" as="geometry" />
        </mxCell>
        <mxCell id="PzxKSnyha53FVGnrYv1--27" value="Special" style="whiteSpace=wrap;html=1;align=center;" vertex="1" parent="1">
          <mxGeometry x="470" y="440" width="100" height="40" as="geometry" />
        </mxCell>
        <mxCell id="PzxKSnyha53FVGnrYv1--28" value="Member" style="whiteSpace=wrap;html=1;align=center;" vertex="1" parent="1">
          <mxGeometry x="630" y="440" width="100" height="40" as="geometry" />
        </mxCell>
      </root>
    </mxGraphModel>
  </diagram>
</mxfile>
